<svg width="40" height="40" viewBox="0 0 40 40" fill="none" xmlns="http://www.w3.org/2000/svg">
<path d="M40 20C40 31.0457 31.0457 40 20 40C8.9543 40 0 31.0457 0 20C0 8.9543 8.9543 0 20 0C31.0457 0 40 8.9543 40 20Z" fill="white"/>
<path d="M11.2523 26.3938C10.7723 26.3938 10.3354 26.3138 9.94154 26.1538C9.56 26.0062 9.25846 25.8154 9.03692 25.5815C8.82769 25.3354 8.72308 25.0769 8.72308 24.8062C8.72308 24.5354 8.80923 24.3138 8.98154 24.1415C9.16615 23.9569 9.38154 23.8646 9.62769 23.8646C9.76308 23.8646 9.88 23.8954 9.97846 23.9569C10.0892 24.0062 10.2246 24.0923 10.3846 24.2154C10.5446 24.3385 10.6862 24.4369 10.8092 24.5108C10.9446 24.5723 11.0923 24.6031 11.2523 24.6031C11.7569 24.6031 12.3477 24.1477 13.0246 23.2369C13.7138 22.3138 14.4277 21.0031 15.1662 19.3046C15.9415 17.4831 16.5631 16.1292 17.0308 15.2431C17.5108 14.3446 17.9785 13.6923 18.4338 13.2862C18.9015 12.88 19.4492 12.6769 20.0769 12.6769C20.9385 12.6769 21.3692 13.0708 21.3692 13.8585C21.3692 14.1169 21.32 14.5415 21.2215 15.1323C21.1354 15.7231 21.08 16.1108 21.0554 16.2954C20.8338 17.6738 20.6554 18.8985 20.52 19.9692C20.3846 21.04 20.3169 22.0923 20.3169 23.1262C20.3169 23.6431 20.3846 24.0185 20.52 24.2523C20.6677 24.4738 20.8523 24.5846 21.0738 24.5846C21.4062 24.5846 21.7938 24.2462 22.2369 23.5692C22.68 22.8923 23.0492 22.1231 23.3446 21.2615C23.4185 21.0523 23.5292 20.8923 23.6769 20.7815C23.8246 20.6708 23.9846 20.6154 24.1569 20.6154C24.3662 20.6154 24.5385 20.6892 24.6738 20.8369C24.8215 20.9723 24.8954 21.1569 24.8954 21.3908C24.8954 21.5385 24.8708 21.68 24.8215 21.8154C24.28 23.3662 23.6892 24.5108 23.0492 25.2492C22.4215 25.9754 21.6954 26.3385 20.8708 26.3385C20.0831 26.3385 19.4492 26.0369 18.9692 25.4338C18.5015 24.8308 18.2677 23.9323 18.2677 22.7385C18.2677 21.6431 18.3415 20.5846 18.4892 19.5631C18.6492 18.5415 18.8585 17.4215 19.1169 16.2031C19.1908 15.8215 19.2462 15.4954 19.2831 15.2246C19.3323 14.9538 19.3385 14.8185 19.3015 14.8185C19.2154 14.8185 19.0677 15.0462 18.8585 15.5015C18.6615 15.9569 18.3231 16.7754 17.8431 17.9569L17.1231 19.7108C16.2369 21.9015 15.32 23.5631 14.3723 24.6954C13.4369 25.8277 12.3969 26.3938 11.2523 26.3938ZM13.4123 21.5569C13.0308 21.5569 12.7354 21.4708 12.5262 21.2985C12.3292 21.1138 12.2308 20.8985 12.2308 20.6523C12.2308 20.4185 12.3231 20.2154 12.5077 20.0431C12.7046 19.8708 12.9692 19.7846 13.3015 19.7846C14.6308 19.7846 15.8 19.7477 16.8092 19.6738C17.8185 19.6 18.7477 19.4585 19.5969 19.2492L19.8185 21.04C19.0308 21.2123 18.0092 21.3415 16.7538 21.4277C15.4985 21.5138 14.3846 21.5569 13.4123 21.5569Z" fill="#232832"/>
<path d="M28.0735 26.3569C27.2858 26.3569 26.6397 26.1108 26.135 25.6185C25.6304 25.1138 25.3781 24.48 25.3781 23.7169C25.3781 22.7077 25.8335 21.3662 26.7443 19.6923L27.095 20.3015C26.5658 20.2031 26.1781 20.1108 25.932 20.0246C25.6981 19.9385 25.3289 19.7538 24.8243 19.4708L25.655 19.3969L25.3597 20.2646C25.175 20.88 24.9966 21.3969 24.8243 21.8154C24.7504 22.0123 24.6397 22.1662 24.492 22.2769C24.3566 22.3754 24.2089 22.4246 24.0489 22.4246C23.8397 22.4246 23.655 22.3508 23.495 22.2031C23.3474 22.0554 23.2735 21.8708 23.2735 21.6492C23.2735 21.5015 23.2981 21.3723 23.3474 21.2615C23.6797 20.3385 23.9074 19.6308 24.0304 19.1385C23.8212 18.9292 23.7166 18.6708 23.7166 18.3631C23.7166 18.0923 23.8089 17.8585 23.9935 17.6615C24.1781 17.4523 24.412 17.3477 24.695 17.3477C24.9781 17.3477 25.2181 17.4462 25.415 17.6431C25.4889 17.7169 25.5935 17.84 25.7289 18.0123C25.8643 18.1723 26.0243 18.3015 26.2089 18.4C26.3935 18.4985 26.6274 18.5477 26.9104 18.5477C27.0458 18.5477 27.2243 18.5231 27.4458 18.4738C27.6674 18.4246 27.8212 18.4 27.9074 18.4C28.1658 18.4 28.3812 18.4862 28.5535 18.6585C28.7381 18.8308 28.8304 19.0523 28.8304 19.3231C28.8304 19.4708 28.7566 19.7231 28.6089 20.08C28.5227 20.2892 28.3997 20.56 28.2397 20.8923C27.9566 21.5323 27.7351 22.0615 27.5751 22.48C27.4274 22.8985 27.3535 23.2738 27.3535 23.6062C27.3535 23.9262 27.4397 24.1723 27.612 24.3446C27.7843 24.5169 28.0243 24.6031 28.332 24.6031C28.6274 24.6031 28.9166 24.4923 29.1997 24.2708C29.4951 24.0369 29.772 23.7169 30.0304 23.3108C30.1412 23.1385 30.2704 23.0092 30.4181 22.9231C30.5658 22.8246 30.7135 22.7754 30.8612 22.7754C31.0704 22.7754 31.2427 22.8492 31.3781 22.9969C31.5258 23.1446 31.5997 23.3231 31.5997 23.5323C31.5997 23.7538 31.532 23.9692 31.3966 24.1785C30.5227 25.6308 29.415 26.3569 28.0735 26.3569Z" fill="#232832"/>
</svg>
