<svg width="19" height="21" viewBox="0 0 19 21" fill="none" xmlns="http://www.w3.org/2000/svg">
<path d="M16.7602 2.179L4.54899 0.0227063C4.15725 -0.0462289 3.75418 0.0432422 3.4284 0.271444C3.10263 0.499647 2.88082 0.847894 2.81176 1.23961L0.0226438 17.0837C-0.0114698 17.2778 -0.0070008 17.4767 0.0357954 17.6691C0.0785917 17.8614 0.158876 18.0435 0.272061 18.2048C0.385246 18.3662 0.529113 18.5036 0.69544 18.6093C0.861767 18.715 1.04729 18.7869 1.24142 18.8209L13.4526 20.9772C13.6468 21.0114 13.8458 21.0071 14.0383 20.9643C14.2308 20.9216 14.4129 20.8414 14.5744 20.7282C14.7358 20.615 14.8733 20.471 14.9791 20.3047C15.0849 20.1383 15.1568 19.9526 15.1908 19.7584L17.9799 3.91435C18.0482 3.52249 17.9581 3.11953 17.7294 2.79411C17.5006 2.46868 17.152 2.24742 16.7602 2.179ZM13.7114 19.4997L1.49924 17.3434L4.28836 1.4993L16.4995 3.65559L13.7114 19.4997ZM5.37494 3.97622C5.40968 3.78044 5.52075 3.60647 5.68371 3.49255C5.84668 3.37863 6.04822 3.33409 6.24402 3.36871L14.0254 4.74218C14.2104 4.77457 14.3764 4.87515 14.4908 5.02404C14.6052 5.17293 14.6595 5.35931 14.6432 5.54634C14.6268 5.73338 14.5409 5.90747 14.4024 6.03423C14.2639 6.16098 14.0829 6.23118 13.8951 6.23096C13.8511 6.2309 13.8072 6.22713 13.7639 6.21971L5.98245 4.8453C5.78667 4.81056 5.6127 4.6995 5.49878 4.53653C5.38486 4.37356 5.34032 4.17202 5.37494 3.97622ZM4.85556 6.93128C4.87265 6.83426 4.90869 6.74155 4.96162 6.65846C5.01455 6.57537 5.08334 6.50352 5.16404 6.44701C5.24475 6.39051 5.3358 6.35046 5.43199 6.32915C5.52817 6.30785 5.62762 6.3057 5.72464 6.32283L13.506 7.69724C13.6923 7.72839 13.8599 7.82863 13.9755 7.97796C14.091 8.12729 14.146 8.31471 14.1294 8.5028C14.1129 8.6909 14.026 8.86582 13.8861 8.99264C13.7462 9.11946 13.5636 9.18885 13.3748 9.18696C13.3304 9.18704 13.2862 9.18296 13.2426 9.17477L5.46119 7.8013C5.26556 7.76613 5.0919 7.65475 4.97834 7.49162C4.86478 7.32849 4.82062 7.12695 4.85556 6.93128ZM4.33523 9.88541C4.37063 9.69014 4.48196 9.51687 4.64486 9.40353C4.80775 9.29019 5.00892 9.24602 5.20431 9.28071L9.09314 9.96416C9.278 9.99654 9.44399 10.097 9.55836 10.2458C9.67274 10.3946 9.72717 10.5809 9.71092 10.7679C9.69468 10.9548 9.60893 11.1289 9.4706 11.2557C9.33228 11.3826 9.15143 11.4529 8.96377 11.4529C8.91977 11.4529 8.87586 11.4492 8.83251 11.4417L4.94181 10.7545C4.7462 10.7195 4.57246 10.6084 4.45873 10.4454C4.34501 10.2825 4.30059 10.0811 4.33523 9.88541Z" fill="#E2E9F6"/>
</svg>
