<svg width="17" height="20" viewBox="0 0 17 20" fill="none" xmlns="http://www.w3.org/2000/svg">
<path opacity="0.2" d="M16.912 3.11373L14.0514 19.3642C14.0338 19.4637 13.9969 19.5588 13.9426 19.644C13.8883 19.7292 13.8178 19.8029 13.735 19.8609C13.6522 19.9188 13.5588 19.9599 13.4602 19.9818C13.3615 20.0036 13.2595 20.0058 13.16 19.9882L0.635619 17.7766C0.434838 17.7412 0.25633 17.6275 0.139315 17.4606C0.0223008 17.2936 -0.0236489 17.0871 0.0115624 16.8862L2.87222 0.635779C2.88975 0.536266 2.92672 0.441181 2.98101 0.355957C3.0353 0.270734 3.10585 0.197041 3.18862 0.139088C3.2714 0.0811359 3.36478 0.0400597 3.46344 0.018206C3.56209 -0.0036476 3.66408 -0.00585053 3.76359 0.0117233L16.288 2.22332C16.4888 2.25874 16.6673 2.37242 16.7843 2.53938C16.9013 2.70633 16.9472 2.91292 16.912 3.11373Z" fill="#E2E9F6"/>
</svg>
